<mxfile host="app.diagrams.net" modified="2024-07-22T20:08:52.952Z" agent="Mozilla/5.0 (Windows NT 10.0; Win64; x64) AppleWebKit/537.36 (KHTML, like Gecko) Chrome/126.0.0.0 Safari/537.36 Edg/126.0.0.0" etag="f7phxUEnM_EJxasQwY3h" version="24.7.3" type="device">
  <diagram name="第 1 页" id="U__Ck4zzddYpi3OIOiOQ">
    <mxGraphModel dx="983" dy="523" grid="1" gridSize="10" guides="1" tooltips="1" connect="1" arrows="1" fold="1" page="1" pageScale="1" pageWidth="1654" pageHeight="1169" math="0" shadow="0">
      <root>
        <mxCell id="0" />
        <mxCell id="1" parent="0" />
        <mxCell id="AzB3EjHpc91ZaC_AzHq1-25" style="edgeStyle=orthogonalEdgeStyle;rounded=0;orthogonalLoop=1;jettySize=auto;html=1;" edge="1" parent="1">
          <mxGeometry relative="1" as="geometry">
            <mxPoint x="630" y="230" as="targetPoint" />
            <mxPoint x="550" y="230" as="sourcePoint" />
          </mxGeometry>
        </mxCell>
        <mxCell id="AzB3EjHpc91ZaC_AzHq1-26" value="sys_clk" style="edgeLabel;html=1;align=center;verticalAlign=middle;resizable=0;points=[];" vertex="1" connectable="0" parent="AzB3EjHpc91ZaC_AzHq1-25">
          <mxGeometry x="-0.2067" y="-1" relative="1" as="geometry">
            <mxPoint x="9" y="-12" as="offset" />
          </mxGeometry>
        </mxCell>
        <mxCell id="AzB3EjHpc91ZaC_AzHq1-27" style="edgeStyle=orthogonalEdgeStyle;rounded=0;orthogonalLoop=1;jettySize=auto;html=1;" edge="1" parent="1">
          <mxGeometry relative="1" as="geometry">
            <mxPoint x="630" y="300" as="targetPoint" />
            <mxPoint x="550" y="300" as="sourcePoint" />
          </mxGeometry>
        </mxCell>
        <mxCell id="AzB3EjHpc91ZaC_AzHq1-28" value="sys_rst_n" style="edgeLabel;html=1;align=center;verticalAlign=middle;resizable=0;points=[];" vertex="1" connectable="0" parent="AzB3EjHpc91ZaC_AzHq1-27">
          <mxGeometry x="-0.2274" relative="1" as="geometry">
            <mxPoint x="11" y="-11" as="offset" />
          </mxGeometry>
        </mxCell>
        <mxCell id="AzB3EjHpc91ZaC_AzHq1-29" style="edgeStyle=orthogonalEdgeStyle;rounded=0;orthogonalLoop=1;jettySize=auto;html=1;" edge="1" parent="1">
          <mxGeometry relative="1" as="geometry">
            <mxPoint x="630" y="374" as="targetPoint" />
            <mxPoint x="550" y="374" as="sourcePoint" />
          </mxGeometry>
        </mxCell>
        <mxCell id="AzB3EjHpc91ZaC_AzHq1-30" value="pi_flag" style="edgeLabel;html=1;align=center;verticalAlign=middle;resizable=0;points=[];" vertex="1" connectable="0" parent="AzB3EjHpc91ZaC_AzHq1-29">
          <mxGeometry x="-0.3008" y="1" relative="1" as="geometry">
            <mxPoint x="14" y="-13" as="offset" />
          </mxGeometry>
        </mxCell>
        <mxCell id="AzB3EjHpc91ZaC_AzHq1-31" style="edgeStyle=orthogonalEdgeStyle;rounded=0;orthogonalLoop=1;jettySize=auto;html=1;" edge="1" parent="1">
          <mxGeometry relative="1" as="geometry">
            <mxPoint x="630" y="450" as="targetPoint" />
            <mxPoint x="550" y="450" as="sourcePoint" />
          </mxGeometry>
        </mxCell>
        <mxCell id="AzB3EjHpc91ZaC_AzHq1-32" value="pi_data" style="edgeLabel;html=1;align=center;verticalAlign=middle;resizable=0;points=[];" vertex="1" connectable="0" parent="AzB3EjHpc91ZaC_AzHq1-31">
          <mxGeometry x="-0.2286" y="1" relative="1" as="geometry">
            <mxPoint x="14" y="-12" as="offset" />
          </mxGeometry>
        </mxCell>
        <mxCell id="AzB3EjHpc91ZaC_AzHq1-33" style="edgeStyle=orthogonalEdgeStyle;rounded=0;orthogonalLoop=1;jettySize=auto;html=1;exitX=1;exitY=0.25;exitDx=0;exitDy=0;" edge="1" parent="1" source="AzB3EjHpc91ZaC_AzHq1-1">
          <mxGeometry relative="1" as="geometry">
            <mxPoint x="960" y="262.57142857142856" as="targetPoint" />
          </mxGeometry>
        </mxCell>
        <mxCell id="AzB3EjHpc91ZaC_AzHq1-34" value="po_flag" style="edgeLabel;html=1;align=center;verticalAlign=middle;resizable=0;points=[];" vertex="1" connectable="0" parent="AzB3EjHpc91ZaC_AzHq1-33">
          <mxGeometry x="-0.0296" y="1" relative="1" as="geometry">
            <mxPoint y="-11" as="offset" />
          </mxGeometry>
        </mxCell>
        <mxCell id="AzB3EjHpc91ZaC_AzHq1-35" style="edgeStyle=orthogonalEdgeStyle;rounded=0;orthogonalLoop=1;jettySize=auto;html=1;exitX=1;exitY=0.75;exitDx=0;exitDy=0;" edge="1" parent="1" source="AzB3EjHpc91ZaC_AzHq1-1">
          <mxGeometry relative="1" as="geometry">
            <mxPoint x="960" y="447.57142857142856" as="targetPoint" />
          </mxGeometry>
        </mxCell>
        <mxCell id="AzB3EjHpc91ZaC_AzHq1-36" value="po_sum" style="edgeLabel;html=1;align=center;verticalAlign=middle;resizable=0;points=[];" vertex="1" connectable="0" parent="AzB3EjHpc91ZaC_AzHq1-35">
          <mxGeometry x="0.2684" relative="1" as="geometry">
            <mxPoint x="-12" y="-11" as="offset" />
          </mxGeometry>
        </mxCell>
        <mxCell id="AzB3EjHpc91ZaC_AzHq1-1" value="" style="rounded=0;whiteSpace=wrap;html=1;align=center;" vertex="1" parent="1">
          <mxGeometry x="630" y="170" width="250" height="370" as="geometry" />
        </mxCell>
        <mxCell id="AzB3EjHpc91ZaC_AzHq1-2" value="fifo_sum_ctrl" style="text;html=1;align=center;verticalAlign=middle;resizable=0;points=[];autosize=1;strokeColor=none;fillColor=none;" vertex="1" parent="1">
          <mxGeometry x="710" y="184" width="90" height="30" as="geometry" />
        </mxCell>
        <mxCell id="AzB3EjHpc91ZaC_AzHq1-3" style="edgeStyle=orthogonalEdgeStyle;rounded=0;orthogonalLoop=1;jettySize=auto;html=1;entryX=0;entryY=0.25;entryDx=0;entryDy=0;" edge="1" parent="1">
          <mxGeometry relative="1" as="geometry">
            <mxPoint x="720" y="240.5" as="targetPoint" />
            <mxPoint x="655" y="241" as="sourcePoint" />
          </mxGeometry>
        </mxCell>
        <mxCell id="AzB3EjHpc91ZaC_AzHq1-4" value="sys_clk" style="edgeLabel;html=1;align=center;verticalAlign=middle;resizable=0;points=[];" vertex="1" connectable="0" parent="AzB3EjHpc91ZaC_AzHq1-3">
          <mxGeometry x="0.1234" relative="1" as="geometry">
            <mxPoint x="-4" y="-10" as="offset" />
          </mxGeometry>
        </mxCell>
        <mxCell id="AzB3EjHpc91ZaC_AzHq1-5" style="edgeStyle=orthogonalEdgeStyle;rounded=0;orthogonalLoop=1;jettySize=auto;html=1;entryX=0;entryY=0.5;entryDx=0;entryDy=0;" edge="1" parent="1">
          <mxGeometry relative="1" as="geometry">
            <mxPoint x="720" y="268" as="targetPoint" />
            <mxPoint x="655" y="268" as="sourcePoint" />
          </mxGeometry>
        </mxCell>
        <mxCell id="AzB3EjHpc91ZaC_AzHq1-6" value="data_in1" style="edgeLabel;html=1;align=center;verticalAlign=middle;resizable=0;points=[];" vertex="1" connectable="0" parent="AzB3EjHpc91ZaC_AzHq1-5">
          <mxGeometry x="-0.2745" relative="1" as="geometry">
            <mxPoint x="7" y="-10" as="offset" />
          </mxGeometry>
        </mxCell>
        <mxCell id="AzB3EjHpc91ZaC_AzHq1-7" style="edgeStyle=orthogonalEdgeStyle;rounded=0;orthogonalLoop=1;jettySize=auto;html=1;entryX=0;entryY=0.75;entryDx=0;entryDy=0;" edge="1" parent="1">
          <mxGeometry relative="1" as="geometry">
            <mxPoint x="720" y="295.5" as="targetPoint" />
            <mxPoint x="655" y="296" as="sourcePoint" />
          </mxGeometry>
        </mxCell>
        <mxCell id="AzB3EjHpc91ZaC_AzHq1-8" value="wr_en1" style="edgeLabel;html=1;align=center;verticalAlign=middle;resizable=0;points=[];" vertex="1" connectable="0" parent="AzB3EjHpc91ZaC_AzHq1-7">
          <mxGeometry x="-0.2002" y="2" relative="1" as="geometry">
            <mxPoint x="5" y="-8" as="offset" />
          </mxGeometry>
        </mxCell>
        <mxCell id="AzB3EjHpc91ZaC_AzHq1-9" style="edgeStyle=orthogonalEdgeStyle;rounded=0;orthogonalLoop=1;jettySize=auto;html=1;entryX=0;entryY=0.75;entryDx=0;entryDy=0;" edge="1" parent="1">
          <mxGeometry relative="1" as="geometry">
            <mxPoint x="720" y="322.5" as="targetPoint" />
            <mxPoint x="655" y="323" as="sourcePoint" />
          </mxGeometry>
        </mxCell>
        <mxCell id="AzB3EjHpc91ZaC_AzHq1-10" value="rd_en" style="edgeLabel;html=1;align=center;verticalAlign=middle;resizable=0;points=[];" vertex="1" connectable="0" parent="AzB3EjHpc91ZaC_AzHq1-9">
          <mxGeometry x="-0.1258" y="-1" relative="1" as="geometry">
            <mxPoint x="1" y="-11" as="offset" />
          </mxGeometry>
        </mxCell>
        <mxCell id="AzB3EjHpc91ZaC_AzHq1-11" style="edgeStyle=orthogonalEdgeStyle;rounded=0;orthogonalLoop=1;jettySize=auto;html=1;exitX=1;exitY=0.5;exitDx=0;exitDy=0;" edge="1" parent="1" source="AzB3EjHpc91ZaC_AzHq1-13">
          <mxGeometry relative="1" as="geometry">
            <mxPoint x="855" y="282" as="targetPoint" />
          </mxGeometry>
        </mxCell>
        <mxCell id="AzB3EjHpc91ZaC_AzHq1-12" value="data_out1" style="edgeLabel;html=1;align=center;verticalAlign=middle;resizable=0;points=[];" vertex="1" connectable="0" parent="AzB3EjHpc91ZaC_AzHq1-11">
          <mxGeometry x="0.1393" y="-1" relative="1" as="geometry">
            <mxPoint x="-12" y="-11" as="offset" />
          </mxGeometry>
        </mxCell>
        <mxCell id="AzB3EjHpc91ZaC_AzHq1-13" value="fifo_data" style="rounded=0;whiteSpace=wrap;html=1;" vertex="1" parent="1">
          <mxGeometry x="720" y="217" width="65" height="130" as="geometry" />
        </mxCell>
        <mxCell id="AzB3EjHpc91ZaC_AzHq1-14" style="edgeStyle=orthogonalEdgeStyle;rounded=0;orthogonalLoop=1;jettySize=auto;html=1;entryX=0;entryY=0.25;entryDx=0;entryDy=0;" edge="1" parent="1">
          <mxGeometry relative="1" as="geometry">
            <mxPoint x="720" y="397.5" as="targetPoint" />
            <mxPoint x="655" y="398" as="sourcePoint" />
          </mxGeometry>
        </mxCell>
        <mxCell id="AzB3EjHpc91ZaC_AzHq1-15" value="sys_clk" style="edgeLabel;html=1;align=center;verticalAlign=middle;resizable=0;points=[];" vertex="1" connectable="0" parent="AzB3EjHpc91ZaC_AzHq1-14">
          <mxGeometry x="0.1234" relative="1" as="geometry">
            <mxPoint x="-4" y="-10" as="offset" />
          </mxGeometry>
        </mxCell>
        <mxCell id="AzB3EjHpc91ZaC_AzHq1-16" style="edgeStyle=orthogonalEdgeStyle;rounded=0;orthogonalLoop=1;jettySize=auto;html=1;entryX=0;entryY=0.5;entryDx=0;entryDy=0;" edge="1" parent="1">
          <mxGeometry relative="1" as="geometry">
            <mxPoint x="720" y="425" as="targetPoint" />
            <mxPoint x="655" y="425" as="sourcePoint" />
          </mxGeometry>
        </mxCell>
        <mxCell id="AzB3EjHpc91ZaC_AzHq1-17" value="data_in1" style="edgeLabel;html=1;align=center;verticalAlign=middle;resizable=0;points=[];" vertex="1" connectable="0" parent="AzB3EjHpc91ZaC_AzHq1-16">
          <mxGeometry x="-0.2745" relative="1" as="geometry">
            <mxPoint x="7" y="-10" as="offset" />
          </mxGeometry>
        </mxCell>
        <mxCell id="AzB3EjHpc91ZaC_AzHq1-18" style="edgeStyle=orthogonalEdgeStyle;rounded=0;orthogonalLoop=1;jettySize=auto;html=1;entryX=0;entryY=0.75;entryDx=0;entryDy=0;" edge="1" parent="1">
          <mxGeometry relative="1" as="geometry">
            <mxPoint x="720" y="452.5" as="targetPoint" />
            <mxPoint x="655" y="453" as="sourcePoint" />
          </mxGeometry>
        </mxCell>
        <mxCell id="AzB3EjHpc91ZaC_AzHq1-19" value="wr_en1" style="edgeLabel;html=1;align=center;verticalAlign=middle;resizable=0;points=[];" vertex="1" connectable="0" parent="AzB3EjHpc91ZaC_AzHq1-18">
          <mxGeometry x="-0.2002" y="2" relative="1" as="geometry">
            <mxPoint x="5" y="-8" as="offset" />
          </mxGeometry>
        </mxCell>
        <mxCell id="AzB3EjHpc91ZaC_AzHq1-20" style="edgeStyle=orthogonalEdgeStyle;rounded=0;orthogonalLoop=1;jettySize=auto;html=1;entryX=0;entryY=0.75;entryDx=0;entryDy=0;" edge="1" parent="1">
          <mxGeometry relative="1" as="geometry">
            <mxPoint x="720" y="479.5" as="targetPoint" />
            <mxPoint x="655" y="480" as="sourcePoint" />
          </mxGeometry>
        </mxCell>
        <mxCell id="AzB3EjHpc91ZaC_AzHq1-21" value="rd_en" style="edgeLabel;html=1;align=center;verticalAlign=middle;resizable=0;points=[];" vertex="1" connectable="0" parent="AzB3EjHpc91ZaC_AzHq1-20">
          <mxGeometry x="-0.1258" y="-1" relative="1" as="geometry">
            <mxPoint x="1" y="-11" as="offset" />
          </mxGeometry>
        </mxCell>
        <mxCell id="AzB3EjHpc91ZaC_AzHq1-22" style="edgeStyle=orthogonalEdgeStyle;rounded=0;orthogonalLoop=1;jettySize=auto;html=1;exitX=1;exitY=0.5;exitDx=0;exitDy=0;" edge="1" parent="1" source="AzB3EjHpc91ZaC_AzHq1-24">
          <mxGeometry relative="1" as="geometry">
            <mxPoint x="855" y="439" as="targetPoint" />
          </mxGeometry>
        </mxCell>
        <mxCell id="AzB3EjHpc91ZaC_AzHq1-23" value="data_out1" style="edgeLabel;html=1;align=center;verticalAlign=middle;resizable=0;points=[];" vertex="1" connectable="0" parent="AzB3EjHpc91ZaC_AzHq1-22">
          <mxGeometry x="0.1393" y="-1" relative="1" as="geometry">
            <mxPoint x="-12" y="-11" as="offset" />
          </mxGeometry>
        </mxCell>
        <mxCell id="AzB3EjHpc91ZaC_AzHq1-24" value="fifo_data" style="rounded=0;whiteSpace=wrap;html=1;" vertex="1" parent="1">
          <mxGeometry x="720" y="374" width="65" height="130" as="geometry" />
        </mxCell>
      </root>
    </mxGraphModel>
  </diagram>
</mxfile>
